<svg xmlns="http://www.w3.org/2000/svg" viewBox="0 0 124 52" role="img" aria-labelledby="title">
  <title id="title">TSP</title>
  <path fill="#123A63" d="M3 6h36l-5 9H24v31H13V15H3Z"/>
  <path fill="#32B44A" d="M43 6h36l-5 9H56c-3 0-4 1-4 3 0 1 1 2 2 4l13 3c10 2 14 7 12 14-2 6-7 9-17 9H36l5-9h20c3 0 4-1 4-3 0-1-1-2-4-3l-13-3c-10-2-14-8-11-15 1-4 3-7 6-9Z"/>
  <path fill="#123A63" fill-rule="evenodd" d="M81 6h22c13 0 19 7 19 18 0 10-7 17-19 17H92v7H81Zm11 9v17h10c6 0 9-3 9-8s-3-9-9-9Z"/>
  <path fill="#123A63" fill-opacity=".78" d="M47 14h7v2h-7Zm9 0h7v2h-7Zm9 0h7v2h-7Z"/>
</svg>
